<?xml version="1.0" standalone="no"?>
<!DOCTYPE svg PUBLIC "-//W3C//DTD SVG 20010904//EN"
 "http://www.w3.org/TR/2001/REC-SVG-20010904/DTD/svg10.dtd">
<svg version="1.0" xmlns="http://www.w3.org/2000/svg"
 width="1080.000000pt" height="1080.000000pt" viewBox="0 0 1080.000000 1080.000000"
 preserveAspectRatio="xMidYMid meet">
<metadata>
Created by potrace 1.14, written by Peter Selinger 2001-2017
</metadata>
<g transform="translate(0.000000,1080.000000) scale(0.100000,-0.100000)"
fill="#000000" stroke="none">
<path d="M0 5400 l0 -5400 5400 0 5400 0 0 5400 0 5400 -5400 0 -5400 0 0
-5400z m9004 2080 c162 -99 331 -467 518 -1125 22 -77 44 -156 49 -175 4 -19
17 -71 29 -115 11 -44 23 -87 25 -95 4 -15 38 -162 76 -325 12 -49 30 -130 41
-180 11 -49 24 -108 29 -130 23 -104 22 -119 -8 -142 -15 -11 -77 -60 -138
-108 -484 -382 -931 -683 -1207 -815 -162 -77 -219 -93 -325 -94 -51 -1 -93
-3 -94 -6 0 -3 -2 -12 -4 -20 -2 -8 -5 -26 -8 -40 -124 -629 -256 -1031 -378
-1157 -159 -165 -317 30 -478 592 -22 77 -61 221 -66 245 -2 8 -15 67 -30 130
-14 63 -28 122 -30 130 -12 53 -85 400 -89 424 -12 69 -27 144 -36 181 -6 22
-12 51 -14 65 -5 29 -25 146 -31 175 -2 11 -11 56 -20 99 -8 44 -18 93 -21
110 -3 17 -9 48 -14 69 l-8 37 142 117 c77 65 148 123 156 130 41 33 107 87
125 101 46 39 296 233 370 288 44 32 82 61 85 64 14 14 225 152 295 193 178
103 320 146 407 122 28 -7 28 -7 42 75 2 14 16 77 31 140 14 63 29 126 31 140
3 14 23 90 45 170 22 80 41 152 43 160 14 58 86 251 121 327 110 235 222 316
339 243z m-5731 -1 c74 -39 163 -192 246 -424 12 -35 81 -263 86 -285 2 -8 17
-69 34 -135 37 -148 93 -403 127 -575 3 -14 12 -59 20 -100 9 -41 18 -86 20
-100 9 -46 33 -175 39 -200 3 -14 8 -38 10 -55 7 -38 32 -174 45 -240 5 -27
12 -63 15 -80 2 -16 7 -40 9 -53 4 -18 -19 -42 -142 -145 -570 -477 -920 -734
-1152 -845 -108 -51 -159 -65 -239 -66 l-64 -1 -11 -55 c-6 -30 -12 -58 -14
-63 -1 -4 -4 -17 -7 -30 -20 -91 -76 -329 -85 -357 -120 -416 -192 -587 -292
-691 -53 -55 -81 -69 -140 -69 -128 0 -263 211 -399 625 -71 213 -192 674
-225 855 -3 14 -9 41 -14 60 -5 19 -12 50 -15 69 -3 19 -7 37 -9 40 -2 3 -7
24 -10 46 -4 22 -8 47 -11 55 -4 16 -9 40 -25 125 -5 28 -11 59 -13 70 -3 11
-8 38 -12 60 -5 22 -9 42 -10 45 -1 3 -5 25 -9 50 -9 46 -12 67 -21 110 -18
90 -31 72 166 230 99 80 190 153 202 164 103 88 598 446 617 446 4 0 10 4 12
8 2 4 28 23 58 41 298 182 509 252 611 200 l36 -18 28 127 c34 157 34 159 41
201 3 19 10 45 15 58 5 13 11 38 14 56 31 177 158 567 222 680 18 33 33 62 33
65 0 4 24 31 54 60 47 46 59 52 96 52 23 0 51 -5 63 -11z m2850 -11 c102 -71
199 -276 297 -623 17 -60 37 -132 45 -160 8 -27 17 -61 19 -75 3 -14 23 -101
44 -195 22 -93 54 -240 71 -325 17 -85 36 -173 41 -195 8 -35 40 -200 54 -278
3 -15 7 -35 10 -45 3 -9 7 -35 11 -57 3 -22 8 -47 10 -55 3 -8 6 -29 9 -45 2
-17 11 -68 21 -114 14 -70 15 -86 3 -96 -31 -29 -268 -224 -458 -376 -591
-475 -905 -664 -1082 -653 -47 3 -58 1 -62 -14 -3 -9 -16 -69 -30 -132 -14
-63 -28 -126 -31 -140 -8 -37 -53 -219 -65 -265 -6 -22 -13 -50 -15 -62 -13
-58 -88 -288 -120 -368 -152 -376 -302 -406 -455 -90 -41 84 -139 357 -155
429 -2 12 -18 75 -35 141 -18 66 -33 129 -36 140 -2 11 -15 72 -30 135 -48
213 -160 772 -189 945 -3 17 -9 50 -14 75 -6 25 -15 77 -22 115 -6 39 -15 82
-19 96 -7 23 -2 31 38 65 90 76 398 329 436 359 21 17 50 40 65 53 50 43 336
258 431 324 173 120 323 201 430 234 59 18 150 18 176 0 20 -15 22 -12 53 127
17 78 33 153 36 165 2 13 7 32 10 42 3 10 8 28 10 39 2 12 11 49 20 84 9 34
18 71 20 81 3 11 16 60 31 110 95 332 197 545 290 607 39 26 98 24 137 -3z"/>
</g>
</svg>
